<svg width="508" height="332" viewBox="0 0 508 332" fill="none" xmlns="http://www.w3.org/2000/svg">
<g clip-path="url(#clip0_302_6)">
<path d="M0.5 123.787V120.026C0.5 74.7001 50.0381 36.0403 117.579 28.5962C161.411 23.6746 207.791 33.3103 239.758 54.4818L251.524 62.2501L262.409 54.4818C295.258 33.3103 340.756 23.6746 385.469 28.5962C453.03 36.0403 502.549 74.7001 502.549 120.026V123.787C502.549 150.697 485.683 176.44 455.874 194.791L278.686 304.182C271.332 308.721 261.624 311.25 251.524 311.25C241.425 311.25 231.717 308.721 224.363 304.182L47.165 194.791C17.3951 176.44 0.500294 150.697 0.500294 123.787H0.5Z" fill="#4A72FF"/>
</g>
<defs>
<clipPath id="clip0_302_6">
<rect width="507" height="332" fill="white" transform="translate(0.5)"/>
</clipPath>
</defs>
</svg>
